OpenSim_Sub10_EMGStiffKnee_GRF.mot
version=1
nRows=52
nColumns=19
inDegrees=no
endheader
time	lFx	lFy	lFz	lCOPx	lCOPy	lCOPz	rFx	rFy	rFz	rCOPx	rCOPy	rCOPz	lMx	lMy	lMz	rMx	rMy	rMz
20.92000000	-0.23730430	1.00064771	-2.75432504	0.00000000	0	-0.00000000	-23.84492451	558.35209239	-48.06986995	1.01454520	0	-0.37236661	0	0.00000001	0	0	-4.31205004	0
20.93000000	-0.25727410	1.06190532	-2.77340900	0.00000001	0	-0.00000000	-22.06814329	574.85473099	-49.28672070	1.00646567	0	-0.37251854	0	-0.00000001	0	0	-4.18765635	0
20.94000000	-0.24378301	1.00542153	-2.79619330	0.00000001	0	-0.00000001	-20.45265276	592.60690142	-49.99707376	0.99837977	0	-0.37270108	0	0.00000000	0	0	-3.96091255	0
20.95000000	-0.21860130	0.88860012	-2.79260761	0.00000000	0	-0.00000000	-19.02593843	610.85120116	-50.36456710	0.99023211	0	-0.37286460	0	0.00000002	0	0	-3.65124296	0.00000000
20.96000000	-0.21849196	0.88745170	-2.74563864	-0.00000001	0	0.00000000	-17.80952657	628.35898615	-50.50652819	0.98220950	0	-0.37297541	0	0.00000004	0	0	-3.30824538	0
20.97000000	-0.23829191	1.06720171	-2.69198859	-0.00000003	0	0.00000002	-16.78588351	644.01829917	-50.46758064	0.97464232	0	-0.37302841	0	0.00000003	0	0	-3.00567139	0
20.98000000	-0.25298288	1.28809331	-2.68698239	-0.00000008	0	0.00000005	-15.66675763	656.99870809	-50.35994799	0.96734538	0	-0.37305948	0	-0.00000006	0	0	-2.75810242	0.00000000
20.99000000	-0.28498063	1.43159375	-2.68021095	-0.00000011	0	0.00000007	-14.18540539	667.04301012	-50.35140384	0.96007803	0	-0.37308707	0	-0.00000031	0	0	-2.53766244	-0.00000000
21.00000000	-0.32032218	1.45540127	-2.66740287	-0.00000004	0	0.00000002	-12.27514044	674.29694367	-50.56422716	0.95279082	0	-0.37312013	0	-0.00000073	0	0	-2.32593780	0
21.01000000	-0.32380783	1.35631226	-2.66249140	0.00000030	0	-0.00000020	-10.00847391	678.75458853	-50.94359545	0.94550170	0	-0.37316220	0	-0.00000104	0	0	-2.12502315	0
21.02000000	-0.30163051	1.20708651	-2.65861686	0.00000107	0	-0.00000069	-7.34035523	680.17483771	-51.38131605	0.93804163	0	-0.37325861	0	-0.00000042	0	0	-1.89652032	0
21.03000000	-0.27468833	1.03791403	-2.64486009	0.00000213	0	-0.00000137	-4.28322155	678.96554734	-51.69555071	0.93065116	0	-0.37341335	0	0.00000265	0	0	-1.63628708	-0.00000000
21.04000000	-0.24964622	0.89744713	-2.61903262	0.00000247	0	-0.00000157	-1.05919231	676.14735659	-51.69601470	0.92362358	0	-0.37358808	0	0.00000970	0	0	-1.36076172	0
21.05000000	-0.22695761	0.86391374	-2.63318546	-0.00000052	0	0.00000039	2.09249761	672.73014622	-51.40068716	0.91693160	0	-0.37378027	0	0.00001963	0	0	-1.04509070	0.00000000
21.06000000	-0.23094597	0.98361530	-2.65244088	-0.00001096	0	0.00000715	5.03016205	669.47233638	-50.97999410	0.91040735	0	-0.37399939	0	0.00002324	0	0	-0.66811916	0
21.07000000	-0.26370374	1.14755406	-2.66610768	-0.00003154	0	0.00002041	7.75273373	667.06170235	-50.50100784	0.90410451	0	-0.37423084	0	-0.00000333	0	0	-0.28643116	0.00000000
21.08000000	-0.31289713	1.25226195	-2.66747104	-0.00005492	0	0.00003531	10.26341530	665.72563600	-49.92489856	0.89801432	0	-0.37446131	0	-0.00009831	0	0	0.08535104	0
21.09000000	-0.31287281	1.30991745	-2.67090288	-0.00004841	0	0.00003060	12.70091978	665.46957432	-49.24431478	0.89216371	0	-0.37463474	0	-0.00028809	0	0	0.47205772	-0.00000000
21.10000000	-0.25148448	1.31470313	-2.69467385	0.00006019	0	-0.00004028	15.24459877	666.16188832	-48.75325109	0.88653232	0	-0.37473008	0	-0.00050846	0	0	0.80975351	0
21.11000000	-0.18841075	1.32490817	-2.69336238	0.00036766	0	-0.00023925	17.98789734	667.49655603	-48.68129461	0.88096171	0	-0.37472610	0	-0.00046289	0	0	1.03554765	-0.00000000
21.12000000	-0.16437267	1.43106465	-2.63456915	0.00089641	0	-0.00057910	20.73149140	669.08777290	-49.04011025	0.87534014	0	-0.37459294	0	0.00051210	0	0	1.18235063	0
21.13000000	-0.17698922	1.54559752	-2.56270075	0.00134785	0	-0.00086420	23.20973028	670.46972417	-49.76503872	0.86969619	0	-0.37436414	0	0.00332167	0	0	1.30549808	0
21.14000000	-0.22048293	1.62232064	-2.47056860	0.00072381	0	-0.00044758	25.32099898	671.18596196	-50.62541246	0.86404618	0	-0.37412893	0	0.00821871	0	0	1.41494183	0
21.15000000	-0.27780815	1.48857773	-2.36742047	-0.00289684	0	0.00190784	27.20027989	671.16945983	-51.47722581	0.85830384	0	-0.37394422	0	0.01254451	0	0	1.56354929	0
21.16000000	-0.36637369	0.86677495	-2.24503156	-0.01160563	0	0.00753300	29.04087836	670.66364644	-52.21504268	0.85249268	0	-0.37381311	0	0.00720757	0	0	1.78265648	0
21.17000000	-0.48578664	-0.73529640	-2.15593947	-0.02451556	0	0.01580810	30.93270549	669.74925159	-52.56528152	0.84662170	0	-0.37371584	0	-0.02552030	0	0	2.01377467	0
21.18000000	-0.63071133	-3.52991040	-2.16502842	-0.03098257	0	0.01979059	33.15011365	668.27493510	-52.53389845	0.84064625	0	-0.37366872	0	-0.10539337	0	0	2.26882216	0
21.19000000	-0.76672419	-6.00129958	-2.32149997	-0.00181133	0	0.00059426	35.95072771	665.89845915	-52.31868223	0.83436845	0	-0.37370520	0	-0.22561389	0	0	2.58345207	-0.00000000
21.20000000	-0.68454015	-2.85713421	-2.73105191	0.11194161	0	-0.07322582	39.28982313	662.22189112	-51.96978436	0.82780180	0	-0.37380065	0	-0.29048281	0	0	2.86412400	0
21.21000000	-0.07153806	16.37532105	-3.40286969	0.34928239	0	-0.22624108	42.91751625	656.86445299	-51.61752505	0.82112154	0	-0.37391610	0	-0.03304600	0	0	3.03625971	0
21.22000000	1.20497161	63.63182226	-4.01318848	0.65492433	0	-0.42160106	46.79222741	649.47242374	-51.46587126	0.81448967	0	-0.37402017	0	0.98973531	0	0	3.12192922	0
21.23000000	0.69800002	144.66619972	-3.32963208	0.89275617	0	-0.57271545	50.92207717	639.87032567	-51.39169824	0.80791514	0	-0.37409545	0	2.99332789	0	0	3.10264169	0
21.24000000	-5.52793501	254.44104503	-0.35319559	1.00958296	0	-0.64611555	55.38206014	628.19562687	-51.24780931	0.80115479	0	-0.37416489	0	5.42450625	0	0	3.01772875	0
21.25000000	-17.27878121	376.54336645	7.29771866	1.04253401	0	-0.66548652	59.94373025	615.14286847	-51.17337518	0.79409077	0	-0.37425008	0	6.90265472	0	0	2.96608746	0
21.26000000	-30.87206997	488.80829575	19.57618571	1.03953741	0	-0.66184912	64.42339712	601.72717694	-51.21351692	0.78695513	0	-0.37430347	0	6.74820090	0	0	2.91261829	0
21.27000000	-44.43025640	575.25777794	33.16442810	1.02932096	0	-0.65404031	68.70293823	588.65334387	-51.34291399	0.77999862	0	-0.37430286	0	5.49843641	0	0	2.77350009	0
21.28000000	-57.34663916	631.40733517	44.91313650	1.02247346	0	-0.64885628	72.86127537	576.07786109	-51.50444961	0.77313337	0	-0.37430136	0	3.89005299	0	0	2.58869142	0
21.29000000	-67.37209783	660.45149813	54.50432598	1.01973919	0	-0.64698837	76.98323718	563.93582558	-51.58937318	0.76624872	0	-0.37431334	0	2.14375258	0	0	2.43004754	0.00000000
21.30000000	-72.91782224	670.96273244	63.78355619	1.01911794	0	-0.64734664	81.11461428	552.33660872	-51.52300798	0.75943732	0	-0.37432178	0	0.08715344	0	0	2.29175897	0.00000000
21.31000000	-75.36288406	673.45745993	73.37663112	1.01853749	0	-0.64879876	85.33551424	541.21130092	-51.26297964	0.75272985	0	-0.37433665	0	-2.19172584	0	0	2.15452120	0
21.32000000	-76.00631738	675.07919349	82.58971966	1.01731435	0	-0.65063036	89.59449946	529.88512354	-50.73906752	0.74602136	0	-0.37438209	0	-4.43090973	0	0	2.04304738	0
21.33000000	-75.33815645	678.23457281	89.73932227	1.01523829	0	-0.65239606	93.76129302	516.77694005	-49.68435523	0.73929028	0	-0.37445008	0	-6.21575381	0	0	1.90701241	0
21.34000000	-73.20232637	682.42483261	93.69104713	1.01210375	0	-0.65381863	97.38402359	499.56122771	-47.65383104	0.73227083	0	-0.37451501	0	-7.34537611	0	0	1.73981877	0
21.35000000	-69.76854476	686.50460510	94.41670432	1.00799573	0	-0.65484816	99.77476949	475.84492709	-44.21895291	0.72507631	0	-0.37464330	0	-7.83165855	0	0	1.59858763	0.00000000
21.36000000	-65.38615011	689.18239907	92.72475671	1.00331201	0	-0.65563069	100.10208583	443.60581448	-38.99893885	0.71849323	0	-0.37514118	0	-7.80163878	0	0	1.45537913	0
21.37000000	-60.52439797	688.93048124	89.84640018	0.99853522	0	-0.65634214	97.36732093	401.55008648	-32.07516309	0.71380681	0	-0.37674990	0	-7.52718376	0	0	1.33186391	0.00000000
21.38000000	-55.44710313	684.31923142	86.64006962	0.99367701	0	-0.65711695	90.41690521	349.80924889	-24.18149297	0.71288650	0	-0.38033515	0	-7.25110420	0	0	1.23670990	0
21.39000000	-50.23083863	674.07131165	83.42312382	0.98860337	0	-0.65801855	78.55623503	290.10768286	-16.48943205	0.71654988	0	-0.38586317	0	-7.08551497	0	0	1.10066856	0
21.40000000	-44.99214106	657.28218451	80.21837702	0.98315025	0	-0.65899237	62.22533386	226.01981999	-10.19529824	0.72010369	0	-0.39028987	0	-7.06138369	0	0	0.91381968	0.00000000
21.41000000	-39.86398811	634.58659102	76.88655904	0.97736752	0	-0.65995055	43.31749482	163.34683035	-5.91355083	0.70670857	0	-0.38372702	0	-7.08535834	0	0	0.72346868	0.00000000
21.42000000	-34.95444546	608.32293881	73.26894956	0.97137273	0	-0.66085768	25.03199250	107.87632785	-3.61583077	0.64361641	0	-0.34758045	0	-7.03465263	0	0	0.53213640	0
21.43000000	-30.29259135	581.63172759	69.39626564	0.96504313	0	-0.66169607	10.04554680	63.45329450	-2.87484750	0.49474421	0	-0.26261415	0	-6.88605446	0	0	0.33125342	0.00000000
